{"title":"Hou De Jarasa Ushir 2012 Marathi 1080p Untouched HD x264 [TMB]","uid":15538079,"size":2332925659,"categoryP":"video","categoryS":"movies","magnet":"?xt=urn:btih:7b7523707c6ebf3c24ff99e25e1a6b8e658bd67e&amp;dn=Hou+De+Jarasa+Ushir+2012+Marathi+1080p+Untouched+HD+x264+%5BTMB%5D&amp;tr=udp%3A%2F%2Ftracker.leechers-paradise.org%3A6969&amp;tr=udp%3A%2F%2Fzer0day.ch%3A1337&amp;tr=udp%3A%2F%2Fopen.demonii.com%3A1337&amp;tr=udp%3A%2F%2Ftracker.coppersurfer.tk%3A6969&amp;tr=udp%3A%2F%2Fexodus.desync.com%3A6969","seeders":1,"leechers":0,"uploader":"Manoj_vb","files":1,"time":1470901750,"description":"http://i1306.photobucket.com/albums/s570/zyx55e/44_zpsc46e809d.gif\r\n \nhttps://s25.postimg.org/hkdm47fnj/6sheet_corel12_cc_16_nov_edit_Copy_2.jpg\r\n\r\nHou De Jarasa Ushir 2012 1080p Untouched WebHD x264 AAC [TMB]\r\n \nhttps://s25.postimg.org/h7hmka7zz/vlcsnap_0959_01_26_21h17m05s756.png\r\n \nhttps://s25.postimg.org/k2upr5bzz/vlcsnap_1610_03_24_11h13m39s343.png\r\n \nhttps://s25.postimg.org/u1fodmlfj/vlcsnap_2047_10_26_01h13m26s621.png\r\n \nhttps://s25.postimg.org/59g26e48v/vlcsnap_2387_12_15_10h38m26s746.png\r\n \nhttps://s25.postimg.org/6d06icovz/vlcsnap_3410_03_30_08h27m41s484.png\r\n \nhttps://s25.postimg.org/3kbkc2dxb/vlcsnap_3576_06_21_16h24m59s964.png\r\n \nhttps://s25.postimg.org/n3g5lfcov/vlcsnap_4531_07_23_10h30m28s562.png\r\n \nhttps://s25.postimg.org/chwa9f6db/vlcsnap_5862_07_01_11h30m17s875.png\r\n \nhttps://s25.postimg.org/yv40w87b3/vlcsnap_7997_08_14_05h46m17s691.png\r\n \nhttps://s25.postimg.org/bi5zdpr7j/vlcsnap_8107_02_13_23h17m03s608.png\r\n \nhttp://i1306.photobucket.com/albums/s570/zyx55e/oie_11162011MOJeDGQI_zpsc25b2b81.gif\r\n\r\nGeneral\r\nComplete name               : Hou De Jarasa Ushir 2012 1080p Untouched WebHD x264 AAC [TMB].mp4\r\nFormat                      : MPEG-4\r\nFormat profile              : Base Media\r\nCodec ID                    : isom (isom/iso2/avc1/mp41)\r\nFile size                   : 2.17 GiB\r\nDuration                    : 2h 13mn\r\nOverall bit rate mode       : Variable\r\nOverall bit rate            : 2 326 Kbps\r\n\r\nVideo\r\nFormat                      : AVC\r\nFormat/Info                 : Advanced Video Codec\r\nFormat profile              :   \r\nFormat settings, CABAC      : Yes\r\nFormat settings, ReFrames   : 3 frames\r\nCodec ID                    : avc1\r\nCodec ID/Info               : Advanced Video Coding\r\nDuration                    : 2h 13mn\r\nBit rate                    : 2 197 Kbps\r\nWidth                       : 1 920 pixels\r\nHeight                      : 1 080 pixels\r\nDisplay aspect ratio        : 16:9\r\nFrame rate mode             : Constant\r\nFrame rate                  : 24.000 fps\r\nColor space                 : YUV\r\nChroma subsampling          : 4:2:0\r\nBit depth                   : 8 bits\r\nScan type                   : Progressive\r\nBits/(Pixel*Frame)          : 0.044\r\nStream size                 : 2.05 GiB (94%)\r\n\r\nAudio\r\nFormat                      : AAC\r\nFormat/Info                 : Advanced Audio Codec\r\nFormat profile              : LC\r\nCodec ID                    : 40\r\nDuration                    : 2h 13mn\r\nBit rate mode               : Variable\r\nBit rate                    : 126 Kbps\r\nChannel(s)                  : 2 channels\r\nChannel positions           : Front: L R\r\nSampling rate               : 44.1 KHz\r\nFrame rate                  : 43.066 fps (1024 spf)\r\nCompression mode            : Lossy\r\nStream size                 : 120 MiB (5%)\r\n\r\nUploaded &amp; Shared by Manojvb\r\n\r\nSeeding 24x7... Extreme Seeding...\r\n\r\n \nhttp://i1306.photobucket.com/albums/s570/zyx55e/oie_1117625zVIGKvnK_zpsc8b6e055.gif","torrent":{"xt":"urn:btih:7b7523707c6ebf3c24ff99e25e1a6b8e658bd67e","amp;dn":"Hou+De+Jarasa+Ushir+2012+Marathi+1080p+Untouched+HD+x264+%5BTMB%5D","amp;tr":["udp%3A%2F%2Ftracker.leechers-paradise.org%3A6969","udp%3A%2F%2Fzer0day.ch%3A1337","udp%3A%2F%2Fopen.demonii.com%3A1337","udp%3A%2F%2Ftracker.coppersurfer.tk%3A6969","udp%3A%2F%2Fexodus.desync.com%3A6969"],"infoHash":"7b7523707c6ebf3c24ff99e25e1a6b8e658bd67e","infoHashBuffer":{"type":"Buffer","data":[123,117,35,112,124,110,191,60,36,255,153,226,94,26,107,142,101,139,214,126]},"announce":[],"urlList":[]}}